# ProBuilder 4.2.3
# https://unity3d.com/unity/features/worldbuilding/probuilder
# 09.02.2021 10:31:06

mtllib ./Arch60.mtl
o Arch60

g Arch60
v -1 0 0
v -0.9945219 -1.490116E-08 -0.1045285
v -1 0.1 -1.490116E-08
v -0.9945219 0.1 -0.1045285
v -0.4972609 -7.450581E-09 -0.05226424
v -0.5 0 0
v -0.4972609 0.1 -0.05226425
v -0.5 0.1 -1.490116E-08
v -0.9781476 -2.980232E-08 -0.2079117
v -0.9781476 0.09999999 -0.2079118
v -0.4890738 -1.490116E-08 -0.1039559
v -0.4890738 0.1 -0.1039559
v -0.9510565 -2.980232E-08 -0.309017
v -0.9510565 0.09999999 -0.3090171
v -0.4755282 -1.490116E-08 -0.1545085
v -0.4755282 0.1 -0.1545085
v -0.9135454 -5.960464E-08 -0.4067367
v -0.9135454 0.09999996 -0.4067367
v -0.4567727 -2.980232E-08 -0.2033684
v -0.4567727 0.09999999 -0.2033684
v -0.8660254 -5.960464E-08 -0.5000001
v -0.8660254 0.09999996 -0.5000001
v -0.4330127 -2.980232E-08 -0.25
v -0.4330127 0.09999999 -0.2500001
v -0.809017 -5.960464E-08 -0.5877853
v -0.809017 0.09999996 -0.5877853
v -0.4045085 -2.980232E-08 -0.2938927
v -0.4045085 0.09999999 -0.2938927
v -0.7431448 -5.960464E-08 -0.6691307
v -0.7431448 0.09999996 -0.6691307
v -0.3715724 -2.980232E-08 -0.3345653
v -0.3715724 0.09999999 -0.3345654
v -0.6691306 -5.960464E-08 -0.7431449
v -0.6691306 0.09999996 -0.7431449
v -0.3345653 -2.980232E-08 -0.3715725
v -0.3345653 0.09999999 -0.3715725
v -0.5877853 -1.192093E-07 -0.8090171
v -0.5877853 0.0999999 -0.8090171
v -0.2938926 -5.960464E-08 -0.4045086
v -0.2938926 0.09999996 -0.4045086
v -0.5 -1.192093E-07 -0.8660256
v -0.5 0.0999999 -0.8660256
v -0.25 -5.960464E-08 -0.4330128
v -0.25 0.09999996 -0.4330128

vt 0 0
vt 0 0.1046719
vt 0.1 0
vt 0.1 0.1046719
vt 0 0.07850412
vt 0 0.02616816
vt -0.1 0.07850412
vt -0.1 0.02616816
vt 0 0.1
vt 0.5 0.1
vt 0.5 0
vt 0 0.1040985
vt 0 0.2087704
vt 0.1 0.1040985
vt 0.1 0.2087704
vt 0 0.1826021
vt 0 0.1302662
vt -0.1 0.1826021
vt -0.1 0.1302662
vt 0 0.2064831
vt 0 0.311155
vt 0.1 0.2064831
vt 0.1 0.311155
vt 0 0.2849873
vt 0 0.2326513
vt -0.1 0.2849873
vt -0.1 0.2326513
vt 0 0.306032
vt 0 0.4107039
vt 0.1 0.306032
vt 0.1 0.4107039
vt 0 0.3845361
vt 0 0.3322002
vt -0.1 0.3845361
vt -0.1 0.3322002
vt 0 0.4016546
vt 0 0.5063265
vt 0.1 0.4016546
vt 0.1 0.5063265
vt 0 0.480158
vt 0 0.4278221
vt -0.1 0.480158
vt -0.1 0.4278221
vt 0 0.4923031
vt 0 0.596975
vt 0.1 0.4923031
vt 0.1 0.596975
vt 0 0.5708073
vt 0 0.5184713
vt -0.1 0.5708073
vt -0.1 0.5184713
vt 0 0.5769844
vt 0 0.6816564
vt 0.1 0.5769844
vt 0.1 0.6816564
vt 0 0.6554884
vt 0 0.6031525
vt -0.1 0.6554884
vt -0.1 0.6031525
vt -0.6547709 0
vt -0.7594428 0
vt -0.6547709 0.1
vt -0.7594428 0.1
vt 0.7332747 0
vt 0.6809387 0
vt 0.7332747 0.1
vt 0.6809387 0.1
vt -0.7248102 0
vt -0.829482 0
vt -0.7248102 0.1
vt -0.829482 0.1
vt 0.8033139 0
vt 0.750978 0
vt 0.8033139 0.1
vt 0.750978 0.1
vt -0.7863346 0
vt -0.8910066 0
vt -0.7863346 0.1
vt -0.8910066 0.1
vt 0.8648385 0
vt 0.8125026 0
vt 0.8648385 0.1
vt 0.8125026 0.1
vt -0.1 6.050971E-08
vt -0.1 0.5000001
vt 0 0.5000001
vt 0.005478084 0.1045285
vt 0.5027391 0.05226423
vt -0.005478084 0.1045285
vt -0.5027391 0.05226423
vt -0.5 0
vt 0.02185237 0.2079117
vt 0.5109262 0.1039559
vt -0.02185237 0.2079117
vt -0.5109262 0.1039559
vt 0.04894346 0.309017
vt 0.5244718 0.1545085
vt -0.04894346 0.309017
vt -0.5244718 0.1545085
vt 0.08645457 0.4067366
vt 0.5432273 0.2033683
vt -0.08645457 0.4067366
vt -0.5432273 0.2033683
vt 0.1339746 0.5
vt 0.5669873 0.25
vt -0.1339746 0.5
vt -0.5669873 0.25
vt 0.190983 0.5877852
vt 0.5954915 0.2938926
vt -0.190983 0.5877852
vt -0.5954915 0.2938926
vt 0.2568552 0.6691306
vt 0.6284276 0.3345653
vt -0.2568552 0.6691306
vt -0.6284276 0.3345653
vt 0.3308694 0.7431449
vt 0.6654347 0.3715724
vt -0.3308694 0.7431449
vt -0.6654347 0.3715724
vt 0.4122147 0.809017
vt 0.7061074 0.4045085
vt -0.4122147 0.809017
vt -0.7061074 0.4045085
vt 0.5 0.8660254
vt 0.75 0.4330127
vt -0.5 0.8660254
vt -0.75 0.4330127

vn -0.9986296 -7.798634E-09 -0.05233575
vn 0.9986295 5.849039E-09 0.05233632
vn 0 1.490116E-07 1
vn -0.9876884 -2.331054E-08 -0.1564344
vn 0.9876885 3.496568E-08 0.1564338
vn -0.9659258 -7.713408E-08 -0.2588191
vn 0.9659257 3.856712E-08 0.2588196
vn -0.9335803 -1.068021E-07 -0.3583683
vn 0.9335803 5.340103E-08 0.3583683
vn -0.8910066 0 -0.4539904
vn 0.8910071 1.352994E-07 0.4539895
vn -0.8386706 0 -0.5446389
vn 0.8386701 1.623152E-07 0.5446397
vn -0.777146 0 -0.6293204
vn 0.777146 1.875521E-07 0.6293204
vn -0.7071068 0 -0.7071068
vn 0.7071071 2.107341E-07 0.7071065
vn -0.629321 0 -0.7771455
vn 0.6293207 0 0.7771457
vn -0.5446391 0 -0.8386706
vn 0.5446393 2.499432E-07 0.8386704
vn 0.8660254 -1.490116E-07 -0.5
vn 0 1 -1.42556E-07
vn 0 -1 1.42556E-07

usemtl Default-Material
f 3/3/1 4/4/1 2/2/1 1/1/1
f 7/7/2 8/8/2 6/6/2 5/5/2
f 1/1/3 6/11/3 8/10/3 3/9/3
f 4/14/4 10/15/4 9/13/4 2/12/4
f 12/18/5 7/19/5 5/17/5 11/16/5
f 10/22/6 14/23/6 13/21/6 9/20/6
f 16/26/7 12/27/7 11/25/7 15/24/7
f 14/30/8 18/31/8 17/29/8 13/28/8
f 20/34/9 16/35/9 15/33/9 19/32/9
f 18/38/10 22/39/10 21/37/10 17/36/10
f 24/42/11 20/43/11 19/41/11 23/40/11
f 22/46/12 26/47/12 25/45/12 21/44/12
f 28/50/13 24/51/13 23/49/13 27/48/13
f 26/54/14 30/55/14 29/53/14 25/52/14
f 32/58/15 28/59/15 27/57/15 31/56/15
f 30/62/16 34/63/16 33/61/16 29/60/16
f 36/66/17 32/67/17 31/65/17 35/64/17
f 34/70/18 38/71/18 37/69/18 33/68/18
f 40/74/19 36/75/19 35/73/19 39/72/19
f 38/78/20 42/79/20 41/77/20 37/76/20
f 44/82/21 40/83/21 39/81/21 43/80/21
f 43/1/22 41/86/22 42/85/22 44/84/22
f 8/11/23 7/88/23 4/87/23 3/1/23
f 5/90/24 6/91/24 1/1/24 2/89/24
f 7/88/23 12/93/23 10/92/23 4/87/23
f 11/95/24 5/90/24 2/89/24 9/94/24
f 12/93/23 16/97/23 14/96/23 10/92/23
f 15/99/24 11/95/24 9/94/24 13/98/24
f 16/97/23 20/101/23 18/100/23 14/96/23
f 19/103/24 15/99/24 13/98/24 17/102/24
f 20/101/23 24/105/23 22/104/23 18/100/23
f 23/107/24 19/103/24 17/102/24 21/106/24
f 24/105/23 28/109/23 26/108/23 22/104/23
f 27/111/24 23/107/24 21/106/24 25/110/24
f 28/109/23 32/113/23 30/112/23 26/108/23
f 31/115/24 27/111/24 25/110/24 29/114/24
f 32/113/23 36/117/23 34/116/23 30/112/23
f 35/119/24 31/115/24 29/114/24 33/118/24
f 36/117/23 40/121/23 38/120/23 34/116/23
f 39/123/24 35/119/24 33/118/24 37/122/24
f 40/121/23 44/125/23 42/124/23 38/120/23
f 43/127/24 39/123/24 37/122/24 41/126/24

