# ProBuilder 4.2.3
# https://unity3d.com/unity/features/worldbuilding/probuilder
# 09.02.2021 10:31:06

mtllib ./Arch30.mtl
o Arch30

g Arch30
v -1 0 0
v -0.9945219 -1.490116E-08 -0.1045285
v -1 0.1 -1.490116E-08
v -0.9945219 0.1 -0.1045285
v -0.4972609 -7.450581E-09 -0.05226424
v -0.5 0 0
v -0.4972609 0.1 -0.05226425
v -0.5 0.1 -1.490116E-08
v -0.9781476 -2.980232E-08 -0.2079117
v -0.9781476 0.09999999 -0.2079118
v -0.4890738 -1.490116E-08 -0.1039559
v -0.4890738 0.1 -0.1039559
v -0.9510565 -2.980232E-08 -0.309017
v -0.9510565 0.09999999 -0.3090171
v -0.4755282 -1.490116E-08 -0.1545085
v -0.4755282 0.1 -0.1545085
v -0.9135454 -5.960464E-08 -0.4067367
v -0.9135454 0.09999996 -0.4067367
v -0.4567727 -2.980232E-08 -0.2033684
v -0.4567727 0.09999999 -0.2033684
v -0.8660254 -5.960464E-08 -0.5000001
v -0.8660254 0.09999996 -0.5000001
v -0.4330127 -2.980232E-08 -0.25
v -0.4330127 0.09999999 -0.2500001

vt 0 0
vt 0 0.1046719
vt 0.1 0
vt 0.1 0.1046719
vt 0 0.07850412
vt 0 0.02616816
vt -0.1 0.07850412
vt -0.1 0.02616816
vt 0 0.1
vt 0.5 0.1
vt 0.5 0
vt 0 0.1040985
vt 0 0.2087704
vt 0.1 0.1040985
vt 0.1 0.2087704
vt 0 0.1826021
vt 0 0.1302662
vt -0.1 0.1826021
vt -0.1 0.1302662
vt 0 0.2064831
vt 0 0.311155
vt 0.1 0.2064831
vt 0.1 0.311155
vt 0 0.2849873
vt 0 0.2326513
vt -0.1 0.2849873
vt -0.1 0.2326513
vt 0 0.306032
vt 0 0.4107039
vt 0.1 0.306032
vt 0.1 0.4107039
vt 0 0.3845361
vt 0 0.3322002
vt -0.1 0.3845361
vt -0.1 0.3322002
vt 0 0.4016546
vt 0 0.5063265
vt 0.1 0.4016546
vt 0.1 0.5063265
vt 0 0.480158
vt 0 0.4278221
vt -0.1 0.480158
vt -0.1 0.4278221
vt -0.3660254 0.1
vt 0.1339746 0.1
vt -0.3660254 0
vt 0.1339746 0
vt 0.005478084 0.1045285
vt 0.5027391 0.05226423
vt -0.005478084 0.1045285
vt -0.5027391 0.05226423
vt -0.5 0
vt 0.02185237 0.2079117
vt 0.5109262 0.1039559
vt -0.02185237 0.2079117
vt -0.5109262 0.1039559
vt 0.04894346 0.309017
vt 0.5244718 0.1545085
vt -0.04894346 0.309017
vt -0.5244718 0.1545085
vt 0.08645457 0.4067366
vt 0.5432273 0.2033683
vt -0.08645457 0.4067366
vt -0.5432273 0.2033683
vt 0.1339746 0.5
vt 0.5669873 0.25
vt -0.1339746 0.5
vt -0.5669873 0.25

vn -0.9986296 -7.798634E-09 -0.05233575
vn 0.9986295 5.849039E-09 0.05233632
vn 0 1.490116E-07 1
vn -0.9876884 -2.331054E-08 -0.1564344
vn 0.9876885 3.496568E-08 0.1564338
vn -0.9659258 -7.713408E-08 -0.2588191
vn 0.9659257 3.856712E-08 0.2588196
vn -0.9335803 -1.068021E-07 -0.3583683
vn 0.9335803 5.340103E-08 0.3583683
vn -0.8910066 0 -0.4539904
vn 0.8910071 1.352994E-07 0.4539895
vn 0.5000001 -2.580956E-07 -0.8660254
vn 0 1 -1.42556E-07
vn 0 -1 1.42556E-07

usemtl Default-Material
f 3/3/1 4/4/1 2/2/1 1/1/1
f 7/7/2 8/8/2 6/6/2 5/5/2
f 1/1/3 6/11/3 8/10/3 3/9/3
f 4/14/4 10/15/4 9/13/4 2/12/4
f 12/18/5 7/19/5 5/17/5 11/16/5
f 10/22/6 14/23/6 13/21/6 9/20/6
f 16/26/7 12/27/7 11/25/7 15/24/7
f 14/30/8 18/31/8 17/29/8 13/28/8
f 20/34/9 16/35/9 15/33/9 19/32/9
f 18/38/10 22/39/10 21/37/10 17/36/10
f 24/42/11 20/43/11 19/41/11 23/40/11
f 23/46/12 21/47/12 22/45/12 24/44/12
f 8/11/13 7/49/13 4/48/13 3/1/13
f 5/51/14 6/52/14 1/1/14 2/50/14
f 7/49/13 12/54/13 10/53/13 4/48/13
f 11/56/14 5/51/14 2/50/14 9/55/14
f 12/54/13 16/58/13 14/57/13 10/53/13
f 15/60/14 11/56/14 9/55/14 13/59/14
f 16/58/13 20/62/13 18/61/13 14/57/13
f 19/64/14 15/60/14 13/59/14 17/63/14
f 20/62/13 24/66/13 22/65/13 18/61/13
f 23/68/14 19/64/14 17/63/14 21/67/14

