# ProBuilder 4.2.3
# https://unity3d.com/unity/features/worldbuilding/probuilder
# 09.02.2021 10:31:06

mtllib ./Arch15.mtl
o Arch15

g Arch15
v -1 0 0
v -0.9986295 -7.450581E-09 -0.05233597
v -1 0.1 -1.490116E-08
v -0.9986295 0.1 -0.05233599
v -0.4993148 -3.72529E-09 -0.02616798
v -0.5 0 0
v -0.4993148 0.1 -0.026168
v -0.5 0.1 -1.490116E-08
v -0.9945219 -1.490116E-08 -0.1045285
v -0.9945219 0.1 -0.1045285
v -0.4972609 -7.450581E-09 -0.05226424
v -0.4972609 0.1 -0.05226425
v -0.9876884 -1.490116E-08 -0.1564345
v -0.9876884 0.1 -0.1564345
v -0.4938442 -7.450581E-09 -0.07821725
v -0.4938442 0.1 -0.07821726
v -0.9781476 -2.980232E-08 -0.2079117
v -0.9781476 0.09999999 -0.2079118
v -0.4890738 -1.490116E-08 -0.1039559
v -0.4890738 0.1 -0.1039559
v -0.9659258 -2.980232E-08 -0.2588191
v -0.9659258 0.09999999 -0.2588191
v -0.4829629 -1.490116E-08 -0.1294095
v -0.4829629 0.1 -0.1294096

vt 0 0
vt 0 0.0523539
vt 0.1 0
vt 0.1 0.0523539
vt 0 0.03926509
vt 0 0.01308814
vt -0.1 0.03926509
vt -0.1 0.01308814
vt 0 0.1
vt 0.5 0.1
vt 0.5 0
vt 0 0.1046361
vt 0.1 0.1046361
vt 0 0.09154828
vt 0 0.06537133
vt -0.1 0.09154828
vt -0.1 0.06537133
vt 0 0.1043492
vt 0 0.1567032
vt 0.1 0.1043492
vt 0.1 0.1567032
vt 0 0.1436146
vt 0 0.1174377
vt -0.1 0.1436146
vt -0.1 0.1174377
vt 0 0.1560586
vt 0 0.2084125
vt 0.1 0.1560586
vt 0.1 0.2084125
vt 0 0.1953234
vt 0 0.1691465
vt -0.1 0.1953234
vt -0.1 0.1691465
vt 0 0.2072684
vt 0 0.2596223
vt 0.1 0.2072684
vt 0.1 0.2596223
vt 0 0.2465342
vt 0 0.2203573
vt -0.1 0.2465342
vt -0.1 0.2203573
vt -0.4659258 0.1
vt 0.03407416 0.1
vt -0.4659258 0
vt 0.03407416 0
vt 0.00137049 0.05233596
vt 0.5006852 0.02616798
vt -0.00137049 0.05233596
vt -0.5006852 0.02616798
vt -0.5 0
vt 0.005478084 0.1045285
vt 0.5027391 0.05226423
vt -0.005478084 0.1045285
vt -0.5027391 0.05226423
vt 0.01231164 0.1564345
vt 0.5061558 0.07821724
vt -0.01231164 0.1564345
vt -0.5061558 0.07821724
vt 0.02185237 0.2079117
vt 0.5109262 0.1039559
vt -0.02185237 0.2079117
vt -0.5109262 0.1039559
vt 0.03407419 0.258819
vt 0.5170371 0.1294095
vt -0.03407419 0.258819
vt -0.5170371 0.1294095

vn -0.9996573 -3.900738E-09 -0.02617741
vn 0.9996574 3.412997E-09 0.02617627
vn 0 1.490116E-07 1
vn -0.9969174 -1.461398E-08 -0.07845823
vn 0.9969172 8.768643E-09 0.0784605
vn -0.9914449 -1.944991E-08 -0.1305262
vn 0.9914449 1.944991E-08 0.1305262
vn -0.983255 -2.715519E-08 -0.1822354
vn 0.9832551 4.073254E-08 0.1822343
vn -0.9723697 -6.957234E-08 -0.2334461
vn 0.9723697 3.478617E-08 0.2334461
vn 0.2588191 -1.439341E-07 -0.9659258
vn 0 1 -1.423606E-07
vn 0 -1 1.423606E-07

usemtl Default-Material
f 3/3/1 4/4/1 2/2/1 1/1/1
f 7/7/2 8/8/2 6/6/2 5/5/2
f 1/1/3 6/11/3 8/10/3 3/9/3
f 4/4/4 10/13/4 9/12/4 2/2/4
f 12/16/5 7/17/5 5/15/5 11/14/5
f 10/20/6 14/21/6 13/19/6 9/18/6
f 16/24/7 12/25/7 11/23/7 15/22/7
f 14/28/8 18/29/8 17/27/8 13/26/8
f 20/32/9 16/33/9 15/31/9 19/30/9
f 18/36/10 22/37/10 21/35/10 17/34/10
f 24/40/11 20/41/11 19/39/11 23/38/11
f 23/44/12 21/45/12 22/43/12 24/42/12
f 8/11/13 7/47/13 4/46/13 3/1/13
f 5/49/14 6/50/14 1/1/14 2/48/14
f 7/47/13 12/52/13 10/51/13 4/46/13
f 11/54/14 5/49/14 2/48/14 9/53/14
f 12/52/13 16/56/13 14/55/13 10/51/13
f 15/58/14 11/54/14 9/53/14 13/57/14
f 16/56/13 20/60/13 18/59/13 14/55/13
f 19/62/14 15/58/14 13/57/14 17/61/14
f 20/60/13 24/64/13 22/63/13 18/59/13
f 23/66/14 19/62/14 17/61/14 21/65/14

