# ProBuilder 4.2.3
# https://unity3d.com/unity/features/worldbuilding/probuilder
# 09.02.2021 11:10:33

mtllib ./Arch150.mtl
o Arch150

g Arch150
v -1 0 0
v -0.9945219 -1.490116E-08 -0.1045285
v -1 0.1 -1.490116E-08
v -0.9945219 0.1 -0.1045285
v -0.4972609 -7.450581E-09 -0.05226424
v -0.5 0 0
v -0.4972609 0.1 -0.05226425
v -0.5 0.1 -1.490116E-08
v -0.9781476 -2.980232E-08 -0.2079117
v -0.9781476 0.09999999 -0.2079118
v -0.4890738 -1.490116E-08 -0.1039559
v -0.4890738 0.1 -0.1039559
v -0.9510565 -2.980232E-08 -0.309017
v -0.9510565 0.09999999 -0.3090171
v -0.4755282 -1.490116E-08 -0.1545085
v -0.4755282 0.1 -0.1545085
v -0.9135454 -5.960464E-08 -0.4067367
v -0.9135454 0.09999996 -0.4067367
v -0.4567727 -2.980232E-08 -0.2033684
v -0.4567727 0.09999999 -0.2033684
v -0.8660254 -5.960464E-08 -0.5000001
v -0.8660254 0.09999996 -0.5000001
v -0.4330127 -2.980232E-08 -0.25
v -0.4330127 0.09999999 -0.2500001
v -0.809017 -5.960464E-08 -0.5877853
v -0.809017 0.09999996 -0.5877853
v -0.4045085 -2.980232E-08 -0.2938927
v -0.4045085 0.09999999 -0.2938927
v -0.7431448 -5.960464E-08 -0.6691307
v -0.7431448 0.09999996 -0.6691307
v -0.3715724 -2.980232E-08 -0.3345653
v -0.3715724 0.09999999 -0.3345654
v -0.6691306 -5.960464E-08 -0.7431449
v -0.6691306 0.09999996 -0.7431449
v -0.3345653 -2.980232E-08 -0.3715725
v -0.3345653 0.09999999 -0.3715725
v -0.5877853 -1.192093E-07 -0.8090171
v -0.5877853 0.0999999 -0.8090171
v -0.2938926 -5.960464E-08 -0.4045086
v -0.2938926 0.09999996 -0.4045086
v -0.5 -1.192093E-07 -0.8660256
v -0.5 0.0999999 -0.8660256
v -0.25 -5.960464E-08 -0.4330128
v -0.25 0.09999996 -0.4330128
v -0.4067366 -1.192093E-07 -0.9135456
v -0.4067366 0.0999999 -0.9135456
v -0.2033683 -5.960464E-08 -0.4567728
v -0.2033683 0.09999996 -0.4567728
v -0.3090169 -1.192093E-07 -0.9510567
v -0.3090169 0.0999999 -0.9510566
v -0.1545085 -5.960464E-08 -0.4755283
v -0.1545085 0.09999996 -0.4755283
v -0.2079117 -1.192093E-07 -0.9781477
v -0.2079117 0.0999999 -0.9781477
v -0.1039558 -5.960464E-08 -0.4890739
v -0.1039558 0.09999996 -0.4890739
v -0.1045284 -1.192093E-07 -0.994522
v -0.1045284 0.0999999 -0.994522
v -0.05226421 -5.960464E-08 -0.497261
v -0.05226421 0.09999996 -0.497261
v 0 -1.192093E-07 -1
v 0 0.0999999 -1
v 0 -5.960464E-08 -0.5000001
v 0 0.09999996 -0.5000001
v 0.1045285 -1.192093E-07 -0.994522
v 0.1045285 0.0999999 -0.994522
v 0.05226421 -5.960464E-08 -0.497261
v 0.05226421 0.09999996 -0.497261
v 0.2079116 -1.192093E-07 -0.9781477
v 0.2079116 0.0999999 -0.9781477
v 0.1039559 -5.960464E-08 -0.4890739
v 0.1039559 0.09999996 -0.4890739
v 0.3090169 -1.192093E-07 -0.9510567
v 0.3090169 0.0999999 -0.9510566
v 0.1545085 -5.960464E-08 -0.4755283
v 0.1545085 0.09999996 -0.4755283
v 0.4067366 -1.192093E-07 -0.9135456
v 0.4067366 0.0999999 -0.9135456
v 0.2033683 -5.960464E-08 -0.4567728
v 0.2033683 0.09999996 -0.4567728
v 0.5 -1.192093E-07 -0.8660255
v 0.5 0.0999999 -0.8660255
v 0.25 -5.960464E-08 -0.4330128
v 0.25 0.09999996 -0.4330128
v 0.5877852 -1.192093E-07 -0.8090171
v 0.5877852 0.0999999 -0.8090171
v 0.2938926 -5.960464E-08 -0.4045086
v 0.2938926 0.09999996 -0.4045086
v 0.6691307 -5.960464E-08 -0.7431449
v 0.6691307 0.09999996 -0.7431449
v 0.3345654 -2.980232E-08 -0.3715724
v 0.3345654 0.09999999 -0.3715725
v 0.7431448 -5.960464E-08 -0.6691307
v 0.7431448 0.09999996 -0.6691307
v 0.3715724 -2.980232E-08 -0.3345653
v 0.3715724 0.09999999 -0.3345654
v 0.8090171 -5.960464E-08 -0.5877852
v 0.8090171 0.09999996 -0.5877852
v 0.4045086 -2.980232E-08 -0.2938926
v 0.4045086 0.09999999 -0.2938927
v 0.8660254 -5.960464E-08 -0.5000001
v 0.8660254 0.09999996 -0.5000001
v 0.4330127 -2.980232E-08 -0.2500001
v 0.4330127 0.09999999 -0.2500001

vt 0 0
vt 0 0.1046719
vt 0.1 0
vt 0.1 0.1046719
vt 0 0.07850412
vt 0 0.02616816
vt -0.1 0.07850412
vt -0.1 0.02616816
vt 0 0.1
vt 0.5 0.1
vt 0.5 0
vt 0 0.1040985
vt 0 0.2087704
vt 0.1 0.1040985
vt 0.1 0.2087704
vt 0 0.1826021
vt 0 0.1302662
vt -0.1 0.1826021
vt -0.1 0.1302662
vt 0 0.2064831
vt 0 0.311155
vt 0.1 0.2064831
vt 0.1 0.311155
vt 0 0.2849873
vt 0 0.2326513
vt -0.1 0.2849873
vt -0.1 0.2326513
vt 0 0.306032
vt 0 0.4107039
vt 0.1 0.306032
vt 0.1 0.4107039
vt 0 0.3845361
vt 0 0.3322002
vt -0.1 0.3845361
vt -0.1 0.3322002
vt 0 0.4016546
vt 0 0.5063265
vt 0.1 0.4016546
vt 0.1 0.5063265
vt 0 0.480158
vt 0 0.4278221
vt -0.1 0.480158
vt -0.1 0.4278221
vt 0 0.4923031
vt 0 0.596975
vt 0.1 0.4923031
vt 0.1 0.596975
vt 0 0.5708073
vt 0 0.5184713
vt -0.1 0.5708073
vt -0.1 0.5184713
vt 0 0.5769844
vt 0 0.6816564
vt 0.1 0.5769844
vt 0.1 0.6816564
vt 0 0.6554884
vt 0 0.6031525
vt -0.1 0.6554884
vt -0.1 0.6031525
vt -0.6547709 0
vt -0.7594428 0
vt -0.6547709 0.1
vt -0.7594428 0.1
vt 0.7332747 0
vt 0.6809387 0
vt 0.7332747 0.1
vt 0.6809387 0.1
vt -0.7248102 0
vt -0.829482 0
vt -0.7248102 0.1
vt -0.829482 0.1
vt 0.8033139 0
vt 0.750978 0
vt 0.8033139 0.1
vt 0.750978 0.1
vt -0.7863346 0
vt -0.8910066 0
vt -0.7863346 0.1
vt -0.8910066 0.1
vt 0.8648385 0
vt 0.8125026 0
vt 0.8648385 0.1
vt 0.8125026 0.1
vt -0.8386704 0
vt -0.9433424 0
vt -0.8386704 0.1
vt -0.9433424 0.1
vt 0.9171745 0
vt 0.9171745 0.1
vt -0.8812445 0
vt -0.9859164 0
vt -0.8812445 0.1
vt -0.9859164 0.1
vt 0.9597484 0
vt 0.9074125 0
vt 0.9597484 0.1
vt 0.9074125 0.1
vt -0.91359 0
vt -1.018262 0
vt -0.91359 0.1
vt -1.018262 0.1
vt 0.9920938 0
vt 0.9397578 0
vt 0.9920938 0.1
vt 0.9397578 0.1
vt -0.9353524 0
vt -1.040024 0
vt -0.9353524 0.1
vt -1.040024 0.1
vt 1.013856 0
vt 0.9615204 0
vt 1.013856 0.1
vt 0.9615204 0.1
vt -0.9462935 0
vt -1.050965 0
vt -0.9462935 0.1
vt -1.050965 0.1
vt 1.024797 0
vt 0.9724615 0
vt 1.024797 0.1
vt 0.9724615 0.1
vt 0 -0.5769853
vt 0 -0.6816574
vt -0.1 -0.5769853
vt -0.1 -0.6816574
vt 0 -0.6554904
vt 0 -0.6031543
vt 0.1 -0.6554904
vt 0.1 -0.6031543
vt 0 -0.4923041
vt 0 -0.5969759
vt -0.1 -0.4923041
vt -0.1 -0.5969759
vt 0 -0.5708064
vt 0 -0.5184705
vt 0.1 -0.5708064
vt 0.1 -0.5184705
vt 1.366025 0.1
vt 1.866025 0.1
vt 1.366025 0
vt 1.866025 0
vt 0.005478084 0.1045285
vt 0.5027391 0.05226423
vt -0.005478084 0.1045285
vt -0.5027391 0.05226423
vt -0.5 0
vt 0.02185237 0.2079117
vt 0.5109262 0.1039559
vt -0.02185237 0.2079117
vt -0.5109262 0.1039559
vt 0.04894346 0.309017
vt 0.5244718 0.1545085
vt -0.04894346 0.309017
vt -0.5244718 0.1545085
vt 0.08645457 0.4067366
vt 0.5432273 0.2033683
vt -0.08645457 0.4067366
vt -0.5432273 0.2033683
vt 0.1339746 0.5
vt 0.5669873 0.25
vt -0.1339746 0.5
vt -0.5669873 0.25
vt 0.190983 0.5877852
vt 0.5954915 0.2938926
vt -0.190983 0.5877852
vt -0.5954915 0.2938926
vt 0.2568552 0.6691306
vt 0.6284276 0.3345653
vt -0.2568552 0.6691306
vt -0.6284276 0.3345653
vt 0.3308694 0.7431449
vt 0.6654347 0.3715724
vt -0.3308694 0.7431449
vt -0.6654347 0.3715724
vt 0.4122147 0.809017
vt 0.7061074 0.4045085
vt -0.4122147 0.809017
vt -0.7061074 0.4045085
vt 0.5 0.8660254
vt 0.75 0.4330127
vt -0.5 0.8660254
vt -0.75 0.4330127
vt 0.5932634 0.9135455
vt 0.7966317 0.4567727
vt -0.5932634 0.9135455
vt -0.7966317 0.4567727
vt 0.6909831 0.9510565
vt 0.8454915 0.4755283
vt -0.6909831 0.9510565
vt -0.8454915 0.4755283
vt 0.7920883 0.9781476
vt 0.8960442 0.4890738
vt -0.7920883 0.9781476
vt -0.8960442 0.4890738
vt 0.8954716 0.9945219
vt 0.9477358 0.497261
vt -0.8954716 0.9945219
vt -0.9477358 0.497261
vt 1 1
vt 1 0.5
vt -1 1
vt -1 0.5
vt 1.104529 0.9945219
vt 1.052264 0.497261
vt -1.104529 0.9945219
vt -1.052264 0.497261
vt 1.207912 0.9781476
vt 1.103956 0.4890738
vt -1.207912 0.9781476
vt -1.103956 0.4890738
vt 1.309017 0.9510565
vt 1.154508 0.4755283
vt -1.309017 0.9510565
vt -1.154508 0.4755283
vt 1.406737 0.9135455
vt 1.203368 0.4567727
vt -1.406737 0.9135455
vt -1.203368 0.4567727
vt 1.5 0.8660254
vt 1.25 0.4330127
vt -1.5 0.8660254
vt -1.25 0.4330127
vt 1.587785 0.809017
vt 1.293893 0.4045085
vt -1.587785 0.809017
vt -1.293893 0.4045085
vt 1.669131 0.7431448
vt 1.334565 0.3715724
vt -1.669131 0.7431448
vt -1.334565 0.3715724
vt 1.743145 0.6691306
vt 1.371572 0.3345653
vt -1.743145 0.6691306
vt -1.371572 0.3345653
vt 1.809017 0.5877852
vt 1.404509 0.2938926
vt -1.809017 0.5877852
vt -1.404509 0.2938926
vt 1.866025 0.5000001
vt 1.433013 0.25
vt -1.866025 0.5000001
vt -1.433013 0.25

vn -0.9986296 -7.798634E-09 -0.05233575
vn 0.9986295 5.849039E-09 0.05233632
vn 0 1.490116E-07 1
vn -0.9876884 -2.331054E-08 -0.1564344
vn 0.9876885 3.496568E-08 0.1564338
vn -0.9659258 -7.713408E-08 -0.2588191
vn 0.9659257 3.856712E-08 0.2588196
vn -0.9335803 -1.068021E-07 -0.3583683
vn 0.9335803 5.340103E-08 0.3583683
vn -0.8910066 0 -0.4539904
vn 0.8910071 1.352994E-07 0.4539895
vn -0.8386706 0 -0.5446389
vn 0.8386701 1.623152E-07 0.5446397
vn -0.777146 0 -0.6293204
vn 0.777146 1.875521E-07 0.6293204
vn -0.7071068 0 -0.7071068
vn 0.7071071 2.107341E-07 0.7071065
vn -0.629321 0 -0.7771455
vn 0.6293207 0 0.7771457
vn -0.5446391 0 -0.8386706
vn 0.5446393 2.499432E-07 0.8386704
vn -0.4539903 0 -0.8910066
vn 0.4539903 2.655406E-07 0.8910066
vn -0.3583678 0 -0.9335805
vn 0.3583678 0 0.9335805
vn -0.2588191 5.757365E-07 -0.9659258
vn 0.258819 2.878683E-07 0.9659258
vn -0.1564344 0 -0.9876884
vn 0.1564345 0 0.9876884
vn -0.05233578 5.952295E-07 -0.9986296
vn 0.05233578 0 0.9986296
vn 0.05233572 0 -0.9986296
vn -0.05233578 0 0.9986296
vn 0.1564347 5.887079E-07 -0.9876883
vn -0.1564343 2.94354E-07 0.9876884
vn 0.258819 0 -0.9659258
vn -0.2588193 0 0.9659258
vn 0.3583678 5.564572E-07 -0.9335805
vn -0.3583678 2.782286E-07 0.9335805
vn 0.4539908 0 -0.8910064
vn -0.4539908 0 0.8910064
vn 0.5446389 0 -0.8386706
vn -0.5446389 0 0.8386706
vn 0.6293205 0 -0.7771459
vn -0.6293199 2.316076E-07 0.7771463
vn 0.7071073 0 -0.7071062
vn -0.7071079 2.107338E-07 0.7071056
vn 0.7771456 0 -0.6293209
vn -0.7771451 1.875524E-07 0.6293215
vn 0.8386703 0 -0.5446395
vn -0.8386708 1.623149E-07 0.5446387
vn 0.5000001 2.580956E-07 0.8660254
vn 0 1 -1.42556E-07
vn 0 -1 1.42556E-07

usemtl Default-Material
f 3/3/1 4/4/1 2/2/1 1/1/1
f 7/7/2 8/8/2 6/6/2 5/5/2
f 1/1/3 6/11/3 8/10/3 3/9/3
f 4/14/4 10/15/4 9/13/4 2/12/4
f 12/18/5 7/19/5 5/17/5 11/16/5
f 10/22/6 14/23/6 13/21/6 9/20/6
f 16/26/7 12/27/7 11/25/7 15/24/7
f 14/30/8 18/31/8 17/29/8 13/28/8
f 20/34/9 16/35/9 15/33/9 19/32/9
f 18/38/10 22/39/10 21/37/10 17/36/10
f 24/42/11 20/43/11 19/41/11 23/40/11
f 22/46/12 26/47/12 25/45/12 21/44/12
f 28/50/13 24/51/13 23/49/13 27/48/13
f 26/54/14 30/55/14 29/53/14 25/52/14
f 32/58/15 28/59/15 27/57/15 31/56/15
f 30/62/16 34/63/16 33/61/16 29/60/16
f 36/66/17 32/67/17 31/65/17 35/64/17
f 34/70/18 38/71/18 37/69/18 33/68/18
f 40/74/19 36/75/19 35/73/19 39/72/19
f 38/78/20 42/79/20 41/77/20 37/76/20
f 44/82/21 40/83/21 39/81/21 43/80/21
f 42/86/22 46/87/22 45/85/22 41/84/22
f 48/89/23 44/82/23 43/80/23 47/88/23
f 46/92/24 50/93/24 49/91/24 45/90/24
f 52/96/25 48/97/25 47/95/25 51/94/25
f 50/100/26 54/101/26 53/99/26 49/98/26
f 56/104/27 52/105/27 51/103/27 55/102/27
f 54/108/28 58/109/28 57/107/28 53/106/28
f 60/112/29 56/113/29 55/111/29 59/110/29
f 58/116/30 62/117/30 61/115/30 57/114/30
f 64/120/31 60/121/31 59/119/31 63/118/31
f 62/116/32 66/117/32 65/115/32 61/114/32
f 68/120/33 64/121/33 63/119/33 67/118/33
f 66/108/34 70/109/34 69/107/34 65/106/34
f 72/112/35 68/113/35 67/111/35 71/110/35
f 70/100/36 74/101/36 73/99/36 69/98/36
f 76/104/37 72/105/37 71/103/37 75/102/37
f 74/92/38 78/93/38 77/91/38 73/90/38
f 80/96/39 76/97/39 75/95/39 79/94/39
f 78/86/40 82/87/40 81/85/40 77/84/40
f 84/89/41 80/82/41 79/80/41 83/88/41
f 82/78/42 86/79/42 85/77/42 81/76/42
f 88/82/43 84/83/43 83/81/43 87/80/43
f 86/70/44 90/71/44 89/69/44 85/68/44
f 92/74/45 88/75/45 87/73/45 91/72/45
f 90/62/46 94/63/46 93/61/46 89/60/46
f 96/66/47 92/67/47 91/65/47 95/64/47
f 94/124/48 98/125/48 97/123/48 93/122/48
f 100/128/49 96/129/49 95/127/49 99/126/49
f 98/132/50 102/133/50 101/131/50 97/130/50
f 104/136/51 100/137/51 99/135/51 103/134/51
f 103/140/52 101/141/52 102/139/52 104/138/52
f 8/11/53 7/143/53 4/142/53 3/1/53
f 5/145/54 6/146/54 1/1/54 2/144/54
f 7/143/53 12/148/53 10/147/53 4/142/53
f 11/150/54 5/145/54 2/144/54 9/149/54
f 12/148/53 16/152/53 14/151/53 10/147/53
f 15/154/54 11/150/54 9/149/54 13/153/54
f 16/152/53 20/156/53 18/155/53 14/151/53
f 19/158/54 15/154/54 13/153/54 17/157/54
f 20/156/53 24/160/53 22/159/53 18/155/53
f 23/162/54 19/158/54 17/157/54 21/161/54
f 24/160/53 28/164/53 26/163/53 22/159/53
f 27/166/54 23/162/54 21/161/54 25/165/54
f 28/164/53 32/168/53 30/167/53 26/163/53
f 31/170/54 27/166/54 25/165/54 29/169/54
f 32/168/53 36/172/53 34/171/53 30/167/53
f 35/174/54 31/170/54 29/169/54 33/173/54
f 36/172/53 40/176/53 38/175/53 34/171/53
f 39/178/54 35/174/54 33/173/54 37/177/54
f 40/176/53 44/180/53 42/179/53 38/175/53
f 43/182/54 39/178/54 37/177/54 41/181/54
f 44/180/53 48/184/53 46/183/53 42/179/53
f 47/186/54 43/182/54 41/181/54 45/185/54
f 48/184/53 52/188/53 50/187/53 46/183/53
f 51/190/54 47/186/54 45/185/54 49/189/54
f 52/188/53 56/192/53 54/191/53 50/187/53
f 55/194/54 51/190/54 49/189/54 53/193/54
f 56/192/53 60/196/53 58/195/53 54/191/53
f 59/198/54 55/194/54 53/193/54 57/197/54
f 60/196/53 64/200/53 62/199/53 58/195/53
f 63/202/54 59/198/54 57/197/54 61/201/54
f 64/200/53 68/204/53 66/203/53 62/199/53
f 67/206/54 63/202/54 61/201/54 65/205/54
f 68/204/53 72/208/53 70/207/53 66/203/53
f 71/210/54 67/206/54 65/205/54 69/209/54
f 72/208/53 76/212/53 74/211/53 70/207/53
f 75/214/54 71/210/54 69/209/54 73/213/54
f 76/212/53 80/216/53 78/215/53 74/211/53
f 79/218/54 75/214/54 73/213/54 77/217/54
f 80/216/53 84/220/53 82/219/53 78/215/53
f 83/222/54 79/218/54 77/217/54 81/221/54
f 84/220/53 88/224/53 86/223/53 82/219/53
f 87/226/54 83/222/54 81/221/54 85/225/54
f 88/224/53 92/228/53 90/227/53 86/223/53
f 91/230/54 87/226/54 85/225/54 89/229/54
f 92/228/53 96/232/53 94/231/53 90/227/53
f 95/234/54 91/230/54 89/229/54 93/233/54
f 96/232/53 100/236/53 98/235/53 94/231/53
f 99/238/54 95/234/54 93/233/54 97/237/54
f 100/236/53 104/240/53 102/239/53 98/235/53
f 103/242/54 99/238/54 97/237/54 101/241/54

